<svg xmlns="http://www.w3.org/2000/svg" width="18" height="18" viewBox="0 0 18 18" fill="none">
<path d="M16.3126 15.5172L12.0646 11.2692C13.0854 10.0437 13.5945 8.47182 13.4858 6.88054C13.3772 5.28927 12.6593 3.80113 11.4814 2.7257C10.3035 1.65027 8.75639 1.07035 7.16182 1.10658C5.56726 1.14281 4.04804 1.79241 2.92022 2.92022C1.79241 4.04804 1.14281 5.56726 1.10658 7.16182C1.07035 8.75639 1.65027 10.3035 2.7257 11.4814C3.80113 12.6593 5.28927 13.3772 6.88054 13.4858C8.47182 13.5945 10.0437 13.0854 11.2692 12.0646L15.5172 16.3126L16.3126 15.5172ZM2.2501 7.3126C2.2501 6.31133 2.54701 5.33255 3.10328 4.50002C3.65956 3.6675 4.45021 3.01862 5.37526 2.63546C6.30031 2.25229 7.31821 2.15203 8.30024 2.34737C9.28227 2.54271 10.1843 3.02486 10.8923 3.73287C11.6003 4.44087 12.0825 5.34292 12.2778 6.32495C12.4732 7.30698 12.3729 8.32488 11.9897 9.24993C11.6066 10.175 10.9577 10.9656 10.1252 11.5219C9.29265 12.0782 8.31386 12.3751 7.3126 12.3751C5.97039 12.3736 4.68359 11.8398 3.73451 10.8907C2.78543 9.9416 2.25158 8.6548 2.2501 7.3126Z" fill="white"/>
</svg>